<svg width="20" height="30" viewBox="0 0 20 30" fill="none" xmlns="http://www.w3.org/2000/svg">
<g clip-path="url(#clip0_9_101)">
<g clip-path="url(#clip1_9_101)">
<path d="M5.48066 22.1049C6.36456 23.2564 7.2648 24.7043 7.7359 25.5789C8.30963 26.7159 8.54751 27.4836 8.97431 28.8586C9.22385 29.6117 9.46174 29.8401 9.96083 29.8401C10.5066 29.8401 10.7561 29.4562 10.9474 28.8586C11.3462 27.5686 11.654 26.5871 12.1414 25.6518C14.0212 21.9591 17.0857 19.3354 18.8116 15.7399C18.8116 15.7399 19.9474 13.5437 19.9474 10.4681C19.9474 7.60147 18.8279 5.60938 18.8279 5.60938L5.48765 22.1292L5.48066 22.1049Z" fill="black"/>
<path d="M0.956163 15.3515C2.03131 17.9024 4.08133 20.1374 5.48065 22.1052L12.8971 12.9464C12.8971 12.9464 11.8499 14.3749 9.9585 14.3749C7.85018 14.3749 6.13367 12.6257 6.13367 10.415C6.13367 8.8942 7.00359 7.83984 7.00359 7.83984C1.54621 8.68527 1.8494 10.0627 0.939837 15.3466L0.956163 15.3515Z" fill="black"/>
<path d="M12.9904 0.476562C15.4625 1.30498 17.5615 3.05171 18.8209 5.60257L12.8971 12.9636C12.8971 12.9636 13.767 11.9044 13.767 10.3885C13.767 8.13156 11.9386 6.42856 9.9655 6.42856C8.09274 6.42856 7.02692 7.84003 7.02692 7.84003C7.4817 6.76139 12.1811 0.8434 12.9974 0.478992L12.9904 0.476562Z" fill="black"/>
<path d="M2.30887 3.71501C3.78283 1.88811 6.36691 -0.00195312 9.9352 -0.00195312C11.6587 -0.00195312 12.9671 0.474207 12.9671 0.474207L7.01993 7.83525C6.61879 7.60858 2.70534 4.43411 2.30887 3.70529V3.71501Z" fill="black"/>
<path d="M0.95617 15.3517C0.95617 15.3517 -0.0163612 13.3402 -0.0163612 10.4444C-0.0163612 7.69916 1.01448 5.29406 2.31585 3.73926L7.02691 7.86921L0.963167 15.3517H0.95617Z" fill="black"/>
</g>
</g>
<defs>
<clipPath id="clip0_9_101">
<rect width="20" height="30" fill="white"/>
</clipPath>
<clipPath id="clip1_9_101">
<rect width="47.0407" height="44.1176" fill="white" transform="translate(-13.9)"/>
</clipPath>
</defs>
</svg>
