<svg width="35" height="27" viewBox="0 0 35 27" fill="none" xmlns="http://www.w3.org/2000/svg">
<path d="M17.5 11.8421L31.5493 3.39474H3.4507L17.5 11.8421ZM31.5493 23.6053V6.78947L17.5 15.1579L3.4507 6.78947V23.6053H31.5493ZM31.5493 0C32.4804 0 33.2746 0.342105 33.9319 1.02632C34.644 1.71053 35 2.5 35 3.39474V23.6053C35 24.5 34.644 25.2895 33.9319 25.9737C33.2746 26.6579 32.4804 27 31.5493 27H3.4507C2.51956 27 1.69797 26.6579 0.985915 25.9737C0.328638 25.2895 0 24.5 0 23.6053V3.39474C0 2.5 0.328638 1.71053 0.985915 1.02632C1.69797 0.342105 2.51956 0 3.4507 0H31.5493Z" fill="black"/>
</svg>
