<svg width="41" height="29" viewBox="0 0 41 29" fill="none" xmlns="http://www.w3.org/2000/svg">
<path d="M21.4083 28.962L12.9967 28.8047C10.2732 28.7499 7.54296 28.8593 4.87286 28.2914C0.811038 27.4429 0.523283 23.2827 0.222179 19.793C-0.192712 14.887 -0.0320953 9.89196 0.750858 5.02689C1.19286 2.29708 2.93232 0.668177 5.62234 0.490922C14.7031 -0.152363 23.8443 -0.0761266 32.9049 0.223989C33.8618 0.251501 34.8253 0.401874 35.7689 0.573039C40.4266 1.40786 40.5402 6.12234 40.8421 10.0911C41.1432 14.1007 41.0161 18.131 40.4405 22.1133C39.9788 25.4106 39.0954 28.1757 35.3674 28.4426C30.6963 28.7917 26.1325 29.0727 21.4484 28.9832C21.4486 28.962 21.4217 28.962 21.4083 28.962ZM16.4631 20.6142C19.9831 18.5476 23.436 16.5155 26.9358 14.4628C23.4093 12.3962 19.963 10.3641 16.4631 8.31136V20.6142Z" fill="black"/>
</svg>
